<svg width="329" height="176" viewBox="0 0 329 176" xmlns="http://www.w3.org/2000/svg">
  <style>
    @keyframes bb { 50% { transform: translate(0,6px); }}
    @keyframes gr { 50% { transform: scale(.9); }}
    @keyframes su { 100% { transform: rotate(360deg); }}
    .bb { animation: bb 1s ease infinite; }
    .gr { animation: gr 1s ease infinite; transform-origin: 50%; }
    .su { animation: su 8s linear infinite; transform-origin: 50%; }
    .bu { animation: su 8s linear infinite reverse; transform-origin: 40% 50%; }
  </style>
  <g transform="matrix(-1 0 0 1 328 1)" fill="none">
    <path d="M178.664 155.993s61.196-.683 64.34-2.82c3.144-2.137-3.863-4.149-22.683-4.591" fill="#FFD445" fill-rule="nonzero" opacity=".3"/>
    <path d="M5.714 104.757c1.478-1.24 24.952-3.592 32.529-1.749 7.578 1.843 19.764 2.293 30.036-.683 10.273-2.976 60.491-9.851 77.406-5.671 16.916 4.18 38.476 4.836 50.604 3.4 12.128-1.437 30.544-6.246 38.4-3.391 7.856 2.855 35.121 6.661 42.456 3.391 7.335-3.27 32.341 1.111 42.223 2.958" stroke="#00B2D6" stroke-width="1.385" opacity=".1" stroke-linecap="round" stroke-linejoin="round"/>
    <path d="M2.695 111.538c1.348-.076 27.085 1.785 39.595-2.726 12.51-4.511 49.221 4.56 70.902 3.618 21.682-.941 37.169-8.245 47.11-7.067 9.94 1.178 40.48 5.376 57.998 3.944 17.518-1.432 39.038-9.168 46.211-5.149 7.173 4.02 34.191 10.15 62.489 5.149" stroke="#00B2D6" stroke-width="1.385" opacity=".3" stroke-linecap="round" stroke-linejoin="round"/>
    <path d="M257.081 40.689s4.788 5.131 8.723 3.89c3.935-1.24 7.416-6.21 7.416-6.21s8.575.446 9.738-2.811c1.163-3.257-.216-8.731-4.761-11.02-4.546-2.289-17.63 4.274-17.63 4.274" fill="#FFD445" fill-rule="nonzero" opacity=".3"/>
    <path d="M282.082 88.785c2.021.223 7.861 1.673 7.861 1.673s.665 23.111-.737 26.323c-1.401 3.212-12.743 1.289-12.743 1.289" fill="#fff" fill-rule="nonzero"/>
    <path d="M261.757 153.388s21.731-58.977 11.58-99.988c0 0-4.043-13.576-9.28-21.085 0 0-.207-1.544 4.653 0 4.86 1.544 17.441 24.538 15.991 60.195-1.451 35.657-11.337 69.658-13.026 69.181-1.689-.477-11.31-4.261-9.918-8.303z" fill="#FFD445" fill-rule="nonzero"/>
    <path d="M264.057 32.315s-19.705-1.151-29.363 3.177c-9.657 4.328-20.932 19.631-20.932 19.631s21.713 5.617 35.714-2.677c14.001-8.294 14.58-20.13 14.58-20.13zM260.571 28.79s-31.981-5.715-34.887-28.532c0 0 24.705 7.049 36.343 22.236 0 0 3.778 5.773 2.035 9.815-1.743 4.042-7.582 3.181-7.582 3.181s2.637-.406 4.092-6.701zM262.022 22.495s17.383-10.538 30.544-10.975c13.161-.437 17.329 3.899 17.329 3.899s-17.612 17.208-36.657 11.274l-9.181 5.622M280.34 160.209c11.629-1.477 17.846-13.942 15.613-14.067-2.232-.125-12.465 6.813-12.465 6.813M287.023 153.388s-2.556 7.585-1.168 9.427l1.168-9.427-8.831 8.923c14.751 2.356 22.333-4.31 22.081-5.149-.252-.839-10.331-.776-11.908 0" fill="#00D775" fill-rule="nonzero"/><path d="M148.915 141.252s26.528 3.087 48.96-.259c22.432-3.346 52.316-30.628 52.316-30.628s10.286-10.141 12.51-13.706c2.223-3.565 4.869-1.785 4.609-1.12-.261.665-14.926 52.646-72.385 58.651-57.459 6.005-54.247-6.773-54.844-8.053-.597-1.28 8.835-4.885 8.835-4.885z" fill="#E8DAAF" fill-rule="nonzero"/>
    <path d="M12.986 153.981s-4.68-3.458-4.64-8.151l.036-4.689s9.433 2.008 10.106 11.823M8.188 152.005c-.898-.446-6.095-3.498-7.443-1.267-1.348 2.231 5.615 4.93 10.106 3.248" fill="#00D775" fill-rule="nonzero"/>
<g>
  <path class="su" d="M28.828 47.141c-4.432 1.291-9.197-.381-11.831-4.149-2.633-3.768-2.542-8.788.226-12.46 2.768-3.672 7.591-5.172 11.973-3.724 4.382 1.448 7.339 5.52 7.34 10.107" stroke="#FFD445" stroke-width="1.385" stroke-linecap="round" stroke-linejoin="round"/>
  <path class="bu" d="M17.069 53.141c-1.197-.67-2.315-1.47-3.333-2.387M40.237 48.849c-2.224 2.68-5.173 4.674-8.498 5.746M36.536 22.281c4.947 3.403 7.896 9.001 7.892 14.977M21.516 19.604c1.493-.38 3.027-.572 4.568-.571" stroke="#FFD445" stroke-width="1.385" opacity=".5" stroke-linecap="round" stroke-linejoin="round"/>
</g>
    <path d="M68.504 162.494c1.215 1.052 2.624 1.858 4.15 2.374M68.504 148.569s5.332-1.816 6.598-1.017M92.979 148.569s2.021 2.03 3.369 1.338M38.243 170.221c1.065-.223 2.996-1.115 4.043-1.115M128.464 146.142c-.937.646-2.014 1.064-3.144 1.218M153.398 170.221c1.123.669 2.92 1.468 4.267 1.289M213.763 162.494s-1.523 1.691-2.65 1.691M194.722 172.662s1.797 1.115 2.695 1.338M253.717 149.274c-.923.35-1.876.616-2.848.794M253.717 171.51c.072-.174 2.767.495 3.89 1.164M273.22 167.754s-2.587 1.115-3.261 1.115M306.567 160.209s2.623 1.878 4.007 1.486M298.572 168.883l-6.378 1.338M312.406 149.274l4.716.794" stroke="#FFD445" stroke-width="1.385" opacity=".2" stroke-linecap="round" stroke-linejoin="round"/>
<g class="bb">
    <path d="M85.46 98.6s-3.593-25.935-3.441-26.573c.153-.638.449-11.939 12.86-13.831 10.538-1.62 15.923 4.221 17.85 10.966.481 1.682 4.653 23.593 4.653 23.593s-13.237 11.645-31.923 5.845z" fill="#E9E6ED" fill-rule="nonzero"/>
    <path d="M131.388 115.139l-2.394-15.334c-.446-2.83-2.032-5.359-4.393-7.005l-4.595-3.203s-3.625 7.625-19.265 10.034c-15.64 2.409-19.395-4.073-19.395-4.073l-4.195 5.693c-1.663 2.259-2.355 5.082-1.922 7.848l1.617 10.346s1.918 23.347 30.131 18.997c28.213-4.35 24.413-23.303 24.413-23.303z" stroke="#524A5F" stroke-width="1.385" fill="#E9E6ED" fill-rule="nonzero" stroke-linecap="round" stroke-linejoin="round"/>
    <path d="M81.346 95.539l-3.014-19.31c-1.626-10.423 5.561-20.182 16.054-21.799 5.04-.777 10.184.467 14.301 3.457 4.117 2.99 6.869 7.483 7.651 12.489l2.345 15.018" stroke="#524A5F" stroke-width="1.385" stroke-linecap="round" stroke-linejoin="round"/>
    <ellipse stroke="#524A5F" stroke-width="1.385" fill="#FFD445" fill-rule="nonzero" stroke-linecap="round" stroke-linejoin="round" transform="rotate(-9.81 95.15 112.061)" cx="95.15" cy="112.061" rx="3.935" ry="5.108"/>
    <ellipse fill="#524A5F" fill-rule="nonzero" transform="rotate(-9.81 86.642 81.27)" cx="86.642" cy="81.27" rx="2.668" ry="4.903"/>
    <ellipse fill="#524A5F" fill-rule="nonzero" transform="rotate(-9.81 101.171 79.586)" cx="101.171" cy="79.586" rx="2.668" ry="4.903"/>
    <path d="M98.37 91.631s3.387-.861 4.941-.718" stroke="#524A5F" stroke-width="1.385" fill="#A6A3AF" fill-rule="nonzero" stroke-linecap="round" stroke-linejoin="round"/>
    <path d="M78.534 99.358s-8.247 8.388-5.206 12.706c3.041 4.319 10.857.999 14.041-3.315 3.185-4.314 4.043-10.498 3.908-11.216-.135-.718-5.534-2.539-6.239-1.99-.705.549-3.027 5.733-3.894 5.733s-2.61-1.918-2.61-1.918zM120.087 95.803s-3.971 6.041-2.996 8.031c.975 1.99 7.488 10.627 17.621 11.426 0 0 1.882-4.323 1.015-7.138-.867-2.815-7.555-4.702-9.28-8.294-1.725-3.592-4.766-4.743-6.36-4.024z" stroke="#524A5F" stroke-width="1.385" fill="#9A95A7" fill-rule="nonzero" stroke-linecap="round" stroke-linejoin="round"/>
  </g>
    <ellipse class="gr" fill="#FFD445" fill-rule="nonzero" opacity=".3" cx="103.333" cy="159.241" rx="18.07" ry="3.248"/>
    <path d="M261.757 153.388c.871-.29 13.924-39.351 14.508-72.562.584-33.212-12.209-48.51-12.209-48.51-2.174 7.744-6.878 14.551-13.372 19.35-10.758 7.799-36.922 3.467-36.922 3.467s6.396-14.438 19.764-21.371c13.367-6.933 27.036-4.966 27.036-4.966s-19.764-4.274-27.328-13.514c-7.564-9.24-7.551-15.022-7.551-15.022s27.036-1.941 36.343 22.236c0 0 2.906-11.261 20.932-14.152 18.025-2.891 27.62 5.773 27.62 5.773s-1.747 6.068-17.715 11.555c-15.968 5.488-21.147 0-21.147 0s15.914-10.975 29.866-10.262M264.349 157.492s3.171 4.805 13.058 4.805c9.886 0 17.181-71.148 9.037-99.996s-20.662-36.647-20.662-36.647M265.427 143.006s2.412 6.55 14.913 6.246M271.693 118.097c4.042 1.95 8.572 2.675 13.026 2.084M275.718 91.203s6.181 2.008 10.142 0M275.318 63.72c0 .156 5.022 1.553 7.636-1.405M259.116 23.361s-14.823-13.862-24.422-15.883M284.701 30.294s2.327.576 1.163 5.488c-1.163 4.912-5.071 4.908-5.071 4.908M260.859 45.597s.871 3.177 7.852 0M283.488 152.955s7.605-10.146 13.421-9.949c5.817.196-4.914 14.005-12.209 16.655M291.924 154.677c2.08.366 8.768-3.516 11.382-1.285 2.614 2.231-7.852 8.977-15.119 8.923M276.27 76.805c-5.664 1.838-4.577 4.462-4.577 4.462 11.319.95 17.159-5.88 19.315-6.402 0 0 1.797-2.78-2.659-3.186" stroke="#524A5F" stroke-width="1.385" stroke-linecap="round" stroke-linejoin="round"/>
    <path d="M291.03 74.869s6.81-3.07 7.542 0c.732 3.07-4.878 3.208-7.542 0zM298.572 74.869s5.004-7.638 12.002-5.854M295.953 77.216s2.893 4.595 7.766 4.149M271.693 81.271s-10.12 49.193-48.453 64.871c-38.333 15.678-77.559 9.927-82.648 3.123-5.089-6.804 15.573-11.743 41.922-10.311 26.349 1.432 73.09-23.976 84.144-49.385M134.712 115.282s-.261 19.631 5.359 30.856M145.686 146.138s28.249 11.859 62.287 0c34.039-11.859 45.744-39.021 45.744-39.021M244.244 121.439c1.077 1.918 1.077 4.253 0 6.17M21.691 158.554c-2.695-.696-4.326-1.62-4.326-2.637M33.985 152.005c9.177 0 16.62 1.753 16.62 3.917 0 1.013-1.639 1.941-4.326 2.637M18.488 152.968s.225-9.146-10.106-11.823c0 0-1.716 8.709 5.053 12.84M8.188 152.005c-1.379-.821-5.197-1.936-7.443-1.267-2.246.669 3.144 4.484 8.984 3.248" stroke="#524A5F" stroke-width="1.385" stroke-linecap="round" stroke-linejoin="round"/>
    <path d="M23.204 137.13l3.369 3.346M46.337 137.13l-2.92 2.9" stroke="#FFD445" stroke-width="1.385" fill="#524A5F" fill-rule="nonzero" stroke-linecap="round" stroke-linejoin="round"/>
  </g>
</svg>
